<svg width="1263" height="1263" viewBox="0 0 1263 1263" fill="none" xmlns="http://www.w3.org/2000/svg">
<g filter="url(#filter0_f_53_434)">
<path d="M927.873 929.058C967.999 888.932 981.571 832.307 968.589 781.02C1019.91 794.061 1076.6 780.501 1116.76 740.339C1177.4 679.704 1177.4 581.396 1116.76 520.761C1076.84 480.836 1020.58 467.199 969.498 479.851C980.888 429.581 967.013 374.743 927.873 335.602C887.657 295.386 830.868 281.843 779.49 294.974C793.104 243.305 779.658 185.984 739.151 145.476C678.516 84.8413 580.207 84.8413 519.572 145.476C479.306 185.743 465.779 242.624 478.994 294.053C428.634 282.527 373.642 296.377 334.416 335.602C295.272 374.746 281.398 429.591 292.794 479.864C241.698 467.19 185.415 480.822 145.476 520.761C84.8413 581.396 84.8413 679.704 145.476 740.339C185.652 780.515 242.366 794.071 293.703 781.007C280.715 832.297 294.286 888.928 334.416 929.058C373.477 968.119 428.172 982.017 478.358 970.752C466.236 1021.5 479.974 1077.17 519.572 1116.76C580.207 1177.4 678.516 1177.4 739.151 1116.76C778.983 1076.93 792.649 1020.84 780.147 969.853C831.352 982.701 887.828 969.103 927.873 929.058Z" fill="#51A2FF" fill-opacity="0.4"/>
</g>
<defs>
<filter id="filter0_f_53_434" x="0" y="0" width="1262.24" height="1262.24" filterUnits="userSpaceOnUse" color-interpolation-filters="sRGB">
<feFlood flood-opacity="0" result="BackgroundImageFix"/>
<feBlend mode="normal" in="SourceGraphic" in2="BackgroundImageFix" result="shape"/>
<feGaussianBlur stdDeviation="50" result="effect1_foregroundBlur_53_434"/>
</filter>
</defs>
</svg>
