<svg width="1174" height="1174" viewBox="0 0 1174 1174" fill="none" xmlns="http://www.w3.org/2000/svg">
<g filter="url(#filter0_f_53_435)">
<path d="M632.483 358.555C701.068 13.8152 473.014 13.8152 541.599 358.555C473.014 13.8152 262.313 101.072 457.599 393.342C262.313 101.072 101.072 262.313 393.342 457.599C101.072 262.313 13.8152 473.014 358.555 541.558C13.8152 472.973 13.8152 701.027 358.555 632.442C13.8152 701.027 101.113 911.687 393.342 716.401C101.113 911.687 262.354 1072.93 457.599 780.658C262.313 1072.89 473.014 1160.14 541.558 815.445C472.973 1160.18 701.027 1160.18 632.442 815.445C701.027 1160.18 911.687 1072.89 716.401 780.658C911.687 1072.89 1072.93 911.646 780.658 716.401C1072.89 911.687 1160.14 700.986 815.445 632.442C1160.18 701.027 1160.18 472.973 815.445 541.558C1160.18 472.973 1072.89 262.313 780.658 457.599C1072.89 262.313 911.646 101.072 716.401 393.342C911.687 101.113 700.986 13.8564 632.442 358.555H632.483Z" fill="#74D4FF" fill-opacity="0.4"/>
</g>
<defs>
<filter id="filter0_f_53_435" x="0" y="0" width="1174" height="1174" filterUnits="userSpaceOnUse" color-interpolation-filters="sRGB">
<feFlood flood-opacity="0" result="BackgroundImageFix"/>
<feBlend mode="normal" in="SourceGraphic" in2="BackgroundImageFix" result="shape"/>
<feGaussianBlur stdDeviation="50" result="effect1_foregroundBlur_53_435"/>
</filter>
</defs>
</svg>
