<svg width="1610" height="1562" viewBox="0 0 1610 1562" fill="none" xmlns="http://www.w3.org/2000/svg">
<path opacity="0.0526316" d="M125.066 1261.04C159.031 1306.22 267.586 1381.84 430.088 1322.8C633.216 1249.01 711.777 1053.39 893.072 951.966C1026.88 877.104 1386.43 764.733 1593.18 888.905" stroke="#F8FAFC" stroke-opacity="0.4" stroke-width="3"/>
<path opacity="0.105263" d="M91.5659 1166.3C120.621 1214.79 220.678 1301.34 388.461 1259.62C598.19 1207.46 696.767 1021.13 887.671 939.206C1028.57 878.741 1397.9 804.569 1590.53 949.671" stroke="#F8FAFC" stroke-opacity="0.4" stroke-width="3"/>
<path opacity="0.157895" d="M66.2567 1070.3C90.0843 1121.56 180.546 1218.09 351.772 1194.13C565.804 1164.18 683.318 989.175 881.739 927.657C1028.19 882.252 1403.24 847.091 1579.66 1011.53" stroke="#F8FAFC" stroke-opacity="0.4" stroke-width="3"/>
<path opacity="0.210526" d="M49.2275 973.873C67.5663 1027.34 147.442 1132.8 320.234 1126.87C536.224 1119.46 671.388 957.697 875.152 917.256C1025.55 887.408 1402.22 891.644 1560.48 1073.63" stroke="#F8FAFC" stroke-opacity="0.4" stroke-width="3"/>
<path opacity="0.263158" d="M40.4774 877.902C53.1265 932.997 121.541 1046.23 294.007 1058.39C509.588 1073.6 660.92 926.848 867.796 907.928C1020.49 893.964 1394.66 937.55 1533.02 1135.08" stroke="#F8FAFC" stroke-opacity="0.4" stroke-width="3"/>
<path opacity="0.315789" d="M39.9141 783.249C46.7348 839.365 102.939 959.127 273.188 989.251C486 1026.91 651.842 896.781 859.562 899.589C1012.87 901.662 1380.44 984.12 1497.4 1195.03" stroke="#F8FAFC" stroke-opacity="0.4" stroke-width="3"/>
<path opacity="0.368421" d="M47.3538 690.758C48.2715 747.279 91.6488 872.261 257.817 920.015C465.527 979.709 644.062 867.632 850.35 892.137C1002.61 910.224 1359.54 1030.65 1453.81 1252.63" stroke="#F8FAFC" stroke-opacity="0.4" stroke-width="3"/>
<path opacity="0.421053" d="M62.5276 601.258C57.5321 657.566 87.6077 786.397 247.874 851.259C448.206 932.337 637.479 839.536 840.075 885.47C989.607 919.373 1332 1076.45 1402.55 1307.07" stroke="#F8FAFC" stroke-opacity="0.4" stroke-width="3"/>
<path opacity="0.473684" d="M85.0793 515.539C74.2254 571.016 90.6698 702.285 243.278 783.544C434.038 885.119 631.974 812.61 828.659 879.47C973.828 928.817 1297.92 1120.82 1343.99 1357.55" stroke="#F8FAFC" stroke-opacity="0.4" stroke-width="3"/>
<path opacity="0.526316" d="M114.575 434.352C97.9817 488.39 100.615 620.659 243.893 717.425C422.99 838.383 627.421 786.962 816.041 874.014C955.256 938.266 1257.5 1163.1 1278.57 1403.35" stroke="#F8FAFC" stroke-opacity="0.4" stroke-width="3"/>
<path opacity="0.578947" d="M150.502 358.395C128.351 410.403 117.144 542.223 249.522 653.435C414.995 792.451 623.681 762.681 802.168 868.972C933.904 947.424 1211 1202.62 1206.83 1443.75" stroke="#F8FAFC" stroke-opacity="0.4" stroke-width="3"/>
<path opacity="0.631579" d="M192.278 288.318C164.812 337.726 139.887 467.651 259.915 592.092C409.951 747.643 620.606 739.849 787.004 864.215C909.818 956.007 1158.72 1238.77 1129.37 1478.14" stroke="#F8FAFC" stroke-opacity="0.4" stroke-width="3"/>
<path opacity="0.684211" d="M239.256 224.695C206.776 270.961 168.407 397.57 274.77 533.875C407.724 704.257 618.04 718.525 770.526 859.604C883.073 963.73 1101.05 1270.96 1046.85 1505.96" stroke="#F8FAFC" stroke-opacity="0.4" stroke-width="3"/>
<path opacity="0.736842" d="M290.735 168.036C253.597 210.653 202.203 332.558 293.736 479.234C408.152 662.58 615.824 698.754 752.729 854.999C853.775 970.319 1038.44 1298.65 959.972 1526.7" stroke="#F8FAFC" stroke-opacity="0.4" stroke-width="3"/>
<path opacity="0.789474" d="M345.96 118.774C304.57 157.276 240.716 273.141 316.416 428.582C411.04 622.883 613.793 680.566 733.616 850.266C822.054 975.517 971.393 1321.35 869.512 1539.94" stroke="#F8FAFC" stroke-opacity="0.4" stroke-width="3"/>
<path opacity="0.842105" d="M404.138 77.2585C358.951 111.223 283.336 219.778 342.372 382.281C416.168 585.408 611.781 663.969 713.209 845.264C788.07 979.073 900.442 1338.62 776.27 1545.37" stroke="#F8FAFC" stroke-opacity="0.4" stroke-width="3"/>
<path opacity="0.894737" d="M464.444 43.7568C415.954 72.8121 329.406 172.869 371.133 340.652C423.292 550.381 609.621 648.958 691.543 839.862C752.008 980.763 826.18 1350.09 681.078 1542.72" stroke="#F8FAFC" stroke-opacity="0.4" stroke-width="3"/>
<path opacity="0.947368" d="M526.028 18.4474C474.766 42.275 378.233 132.737 402.194 303.962C432.144 517.994 607.149 635.509 668.667 833.93C714.072 980.379 749.233 1355.44 584.79 1531.85" stroke="#F8FAFC" stroke-opacity="0.4" stroke-width="3"/>
<path d="M588.026 1.41895C534.555 19.7577 429.095 99.6334 435.026 272.425C442.44 488.416 604.203 623.579 644.643 827.344C674.491 977.737 670.255 1354.41 488.273 1512.67" stroke="#F8FAFC" stroke-opacity="0.4" stroke-width="3"/>
</svg>
