<svg width="555" height="555" viewBox="0 0 555 555" fill="none" xmlns="http://www.w3.org/2000/svg">
<g filter="url(#filter0_f_53_436)">
<path d="M375.993 376.388C389.37 363.011 393.895 344.134 389.567 327.036C406.677 331.383 425.576 326.863 438.965 313.474C459.179 293.26 459.179 260.486 438.965 240.272C425.655 226.961 406.899 222.415 389.87 226.633C393.667 209.875 389.042 191.593 375.993 178.544C362.586 165.137 343.654 160.622 326.526 165C331.064 147.774 326.582 128.665 313.078 115.161C292.863 94.9464 260.09 94.9464 239.875 115.161C226.451 128.585 221.942 147.547 226.347 164.693C209.559 160.85 191.226 165.467 178.149 178.544C165.099 191.594 160.474 209.878 164.273 226.638C147.239 222.412 128.475 226.957 115.161 240.272C94.9464 260.486 94.9464 293.26 115.161 313.474C128.554 326.867 147.462 331.387 164.576 327.031C160.246 344.13 164.77 363.01 178.149 376.388C191.171 389.41 209.405 394.043 226.135 390.288C222.094 407.206 226.674 425.764 239.875 438.965C260.09 459.179 292.863 459.179 313.078 438.965C326.357 425.686 330.913 406.986 326.745 389.988C343.815 394.271 362.643 389.738 375.993 376.388Z" fill="#51A2FF" fill-opacity="0.4"/>
</g>
<defs>
<filter id="filter0_f_53_436" x="0" y="0" width="554.125" height="554.125" filterUnits="userSpaceOnUse" color-interpolation-filters="sRGB">
<feFlood flood-opacity="0" result="BackgroundImageFix"/>
<feBlend mode="normal" in="SourceGraphic" in2="BackgroundImageFix" result="shape"/>
<feGaussianBlur stdDeviation="50" result="effect1_foregroundBlur_53_436"/>
</filter>
</defs>
</svg>
